<svg xmlns="http://www.w3.org/2000/svg" viewBox="0 0 256 256">
  <defs>
    <linearGradient id="grad1" x1="0%" y1="0%" x2="100%" y2="100%">
      <stop offset="0%" style="stop-color:#3b82f6;stop-opacity:1" />
      <stop offset="100%" style="stop-color:#1e40af;stop-opacity:1" />
    </linearGradient>
  </defs>
  
  <!-- Background circle -->
  <circle cx="128" cy="128" r="128" fill="url(#grad1)"/>
  
  <!-- Chat bubble 1 -->
  <path d="M 60 80 Q 60 60 80 60 L 140 60 Q 160 60 160 80 L 160 120 Q 160 140 140 140 L 90 140 L 75 155 L 85 140 L 80 140 Q 60 140 60 120 Z" fill="rgba(255, 255, 255, 0.9)" stroke="white" stroke-width="2"/>
  
  <!-- Chat bubble 2 -->
  <path d="M 110 160 Q 110 175 130 175 L 190 175 Q 210 175 210 155 L 210 115 Q 210 95 190 95 L 140 95 L 155 80 L 145 95 L 150 95 Q 170 95 170 115 L 170 155 Q 170 175 150 175 L 130 175 Q 110 175 110 155 Z" fill="rgba(255, 255, 255, 0.8)" stroke="white" stroke-width="2"/>
  
  <!-- Dots (typing indicator) -->
  <circle cx="85" cy="195" r="4" fill="white" opacity="0.8"/>
  <circle cx="100" cy="195" r="4" fill="white" opacity="0.6"/>
  <circle cx="115" cy="195" r="4" fill="white" opacity="0.4"/>
</svg>